<?xml version="1.0" encoding="utf-8"?>
<!-- Generator: Adobe Illustrator 16.0.0, SVG Export Plug-In . SVG Version: 6.00 Build 0)  -->
<!DOCTYPE svg PUBLIC "-//W3C//DTD SVG 1.1//EN" "http://www.w3.org/Graphics/SVG/1.1/DTD/svg11.dtd">
<svg version="1.1" xmlns="http://www.w3.org/2000/svg" xmlns:xlink="http://www.w3.org/1999/xlink" x="0px" y="0px"
	 width="595.28px" height="595.279px" viewBox="0 0 595.28 595.279" enable-background="new 0 0 595.28 595.279"
	 xml:space="preserve">
<g id="Layer_2">
</g>
<g id="Layer_1">
	<g>
		<path d="M297.641,45.72c-68.418,0-76.997,0.289-103.867,1.516c-26.814,1.224-45.127,5.481-61.151,11.71
			c-16.565,6.438-30.615,15.052-44.62,29.057s-22.619,28.055-29.057,44.62c-6.228,16.024-10.486,34.337-11.709,61.151
			c-1.226,26.87-1.516,35.449-1.516,103.867c0,68.417,0.29,76.995,1.516,103.865c1.224,26.814,5.482,45.127,11.709,61.151
			c6.438,16.566,15.052,30.615,29.057,44.621c14.005,14.005,28.055,22.619,44.62,29.057c16.024,6.228,34.337,10.486,61.151,11.709
			c26.87,1.227,35.449,1.517,103.867,1.517s76.996-0.29,103.866-1.517c26.814-1.223,45.127-5.481,61.151-11.709
			c16.565-6.438,30.615-15.052,44.621-29.057c14.005-14.006,22.619-28.055,29.057-44.621c6.228-16.024,10.486-34.337,11.709-61.151
			c1.227-26.87,1.517-35.448,1.517-103.865c0-68.418-0.29-76.997-1.517-103.867c-1.223-26.814-5.481-45.127-11.709-61.151
			c-6.438-16.565-15.052-30.615-29.057-44.62c-14.006-14.005-28.056-22.619-44.621-29.057c-16.024-6.229-34.337-10.486-61.151-11.71
			C374.637,46.009,366.059,45.72,297.641,45.72L297.641,45.72L297.641,45.72z M297.641,91.11c67.266,0,75.233,0.257,101.798,1.469
			c24.562,1.121,37.9,5.225,46.777,8.674c11.759,4.57,20.151,10.03,28.966,18.845c8.816,8.815,14.275,17.208,18.846,28.967
			c3.449,8.877,7.554,22.216,8.674,46.777c1.212,26.564,1.469,34.532,1.469,101.799c0,67.265-0.257,75.232-1.469,101.797
			c-1.12,24.562-5.225,37.9-8.674,46.777c-4.57,11.76-10.029,20.151-18.846,28.967c-8.814,8.815-17.207,14.274-28.966,18.845
			c-8.877,3.45-22.216,7.554-46.777,8.674c-26.561,1.212-34.527,1.469-101.798,1.469c-67.271,0-75.237-0.257-101.798-1.469
			c-24.562-1.12-37.901-5.224-46.778-8.674c-11.759-4.57-20.151-10.029-28.966-18.845c-8.815-8.815-14.275-17.207-18.845-28.967
			c-3.45-8.877-7.553-22.216-8.674-46.777c-1.212-26.564-1.468-34.532-1.468-101.797c0-67.267,0.256-75.234,1.468-101.799
			c1.121-24.562,5.225-37.9,8.674-46.777c4.57-11.759,10.03-20.151,18.845-28.966c8.815-8.815,17.208-14.275,28.966-18.846
			c8.877-3.449,22.216-7.553,46.778-8.674C222.407,91.367,230.375,91.11,297.641,91.11"/>
		<path d="M297.641,381.613c-46.378,0-83.974-37.596-83.974-83.973c0-46.379,37.596-83.975,83.974-83.975
			c46.377,0,83.974,37.596,83.974,83.975C381.614,344.018,344.018,381.613,297.641,381.613L297.641,381.613z M297.641,168.275
			c-71.447,0-129.365,57.918-129.365,129.365c0,71.445,57.918,129.363,129.365,129.363c71.446,0,129.364-57.918,129.364-129.363
			C427.005,226.193,369.087,168.275,297.641,168.275L297.641,168.275z"/>
		<path d="M462.347,163.164c0,16.696-13.534,30.23-30.23,30.23c-16.695,0-30.23-13.534-30.23-30.23
			c0-16.695,13.535-30.23,30.23-30.23C448.813,132.934,462.347,146.469,462.347,163.164L462.347,163.164z"/>
	</g>
</g>
</svg>
